<?xml version="1.0" standalone="no"?>
<!DOCTYPE svg PUBLIC "-//W3C//DTD SVG 20010904//EN"
 "http://www.w3.org/TR/2001/REC-SVG-20010904/DTD/svg10.dtd">
<svg version="1.0" xmlns="http://www.w3.org/2000/svg"
 width="1200.000000pt" height="1115.000000pt" viewBox="0 0 1200.000000 1115.000000"
 preserveAspectRatio="xMidYMid meet">
<metadata>
Created by potrace 1.16, written by Peter Selinger 2001-2019
</metadata>
<g transform="translate(0.000000,1115.000000) scale(0.100000,-0.100000)"
fill="#000000" stroke="none">
<path d="M6155 11135 c-5 -2 -165 -18 -355 -35 -327 -28 -401 -35 -700 -60
-346 -30 -601 -122 -655 -236 -10 -21 -40 -65 -67 -97 -66 -80 -111 -153 -148
-238 -94 -221 -139 -603 -90 -760 25 -83 87 -176 158 -239 102 -91 293 -167
467 -186 33 -4 65 -11 71 -16 36 -28 612 -38 754 -13 101 18 254 64 370 112
47 19 94 39 105 43 20 8 21 5 17 -54 -3 -49 0 -71 16 -103 38 -74 125 -133
197 -133 19 0 35 -4 35 -8 0 -5 -29 -33 -64 -63 -36 -30 -68 -61 -71 -69 -33
-75 -86 -356 -111 -585 -3 -33 -14 -100 -25 -150 -17 -87 -17 -91 1 -109 17
-18 17 -20 -2 -63 -75 -170 43 -328 272 -364 96 -15 105 -18 94 -29 -9 -9
-2581 -440 -2625 -440 -14 0 -35 -7 -47 -16 -21 -14 -22 -21 -16 -82 6 -60 5
-65 -9 -52 -8 8 -98 139 -200 290 -199 296 -223 327 -259 334 -91 19 -134 26
-171 26 l-42 0 -203 399 c-111 220 -209 402 -217 405 -12 4 -11 13 6 53 11 26
25 82 32 124 9 68 9 80 -6 103 -10 14 -32 32 -50 40 -17 8 -74 41 -126 75 -52
34 -98 61 -102 61 -5 0 3 21 16 48 35 66 43 150 19 179 -14 17 -217 93 -749
284 -401 143 -811 290 -910 326 -99 36 -194 68 -211 70 -65 10 -185 -82 -269
-207 -74 -112 -94 -214 -59 -305 9 -22 18 -53 21 -68 7 -38 31 -51 146 -78 71
-17 97 -27 97 -38 -1 -39 -13 -40 -154 -6 -183 44 -189 42 -250 -107 -51 -122
-67 -210 -73 -384 -7 -195 -1 -216 70 -242 29 -11 275 -99 547 -195 272 -97
654 -232 849 -301 194 -69 361 -126 371 -126 22 0 71 38 68 53 -2 7 25 58 60
115 54 88 66 101 85 97 89 -20 117 -25 157 -25 l46 0 88 -347 c62 -246 85
-354 79 -370 -4 -11 -30 -36 -56 -55 -67 -46 -84 -77 -71 -125 8 -32 362 -585
1157 -1808 95 -146 146 -234 141 -241 -5 -6 -31 -38 -57 -70 -72 -89 -137
-209 -225 -419 -171 -405 -804 -1821 -917 -2051 -91 -184 -114 -268 -97 -362
31 -184 181 -329 497 -482 322 -156 674 -257 1055 -301 58 -7 188 -13 290 -13
l185 -1 95 39 c260 106 787 381 1511 787 l246 138 468 -127 468 -128 45 23
c24 12 49 27 56 32 15 11 281 151 289 151 3 0 -15 -46 -40 -103 -210 -471
-338 -944 -374 -1377 -11 -141 -11 -146 10 -190 57 -118 216 -232 466 -333
133 -54 515 -183 680 -231 149 -42 332 -80 495 -102 150 -19 488 -22 635 -5
637 75 1254 321 2005 799 91 57 192 128 224 156 190 163 330 444 367 731 14
118 7 347 -15 470 -94 515 -409 1388 -738 2050 -155 311 -257 466 -325 493
-62 25 -777 132 -880 132 l-33 0 0 1234 c0 1109 -2 1236 -16 1250 -11 11 -35
16 -77 16 -34 0 -118 7 -187 15 -69 7 -408 46 -755 84 -346 39 -810 91 -1030
116 -220 25 -407 45 -416 45 -10 0 -55 55 -110 137 -52 75 -107 150 -122 166
-27 29 -28 32 -16 80 24 102 -13 213 -105 314 -27 30 -68 65 -92 79 -44 26
-54 39 -33 46 5 2 13 23 16 46 5 38 10 44 49 61 52 23 61 49 48 133 -11 65 -9
68 57 68 41 0 78 14 91 34 4 6 8 64 8 129 0 64 3 117 8 117 4 0 61 -18 126
-40 272 -92 412 -112 536 -78 30 9 87 19 125 22 251 24 435 154 559 397 90
176 126 350 126 610 0 258 -17 314 -132 435 -134 141 -190 169 -696 343 -158
55 -336 120 -397 146 -224 95 -537 187 -805 235 -153 28 -177 22 -198 -50 -8
-25 -15 -51 -18 -58 -2 -8 -26 5 -66 37 -35 27 -93 65 -129 85 -54 29 -76 36
-120 35 -30 0 -58 -2 -64 -4z m9 -172 c-22 -120 -53 -280 -70 -362 l-16 -74
-28 51 c-126 231 -341 353 -599 340 -491 -25 -760 -583 -475 -985 160 -225
460 -319 729 -228 49 16 -213 -193 -328 -263 -76 -46 -177 -63 -367 -63 -314
0 -512 60 -634 192 -124 133 -151 283 -107 585 33 221 75 343 165 485 118 183
168 217 396 269 107 25 192 35 505 60 311 24 588 49 680 59 39 5 91 9 116 10
l47 1 -14 -77z m252 -58 l83 -80 -19 -110 c-11 -60 -19 -125 -20 -142 0 -31
-2 -33 -35 -33 -95 0 -148 -51 -203 -197 -31 -80 -82 -344 -82 -423 0 -49 29
-99 79 -137 38 -29 50 -33 105 -33 54 0 112 14 187 44 11 5 19 -2 28 -20 6
-15 10 -28 9 -29 -21 -19 -330 -161 -488 -225 -320 -129 -447 -168 -610 -185
l-64 -6 94 62 c227 149 399 305 483 440 55 89 123 240 142 319 59 236 97 403
115 505 37 204 58 350 52 359 -16 27 73 -40 144 -109z m454 58 c413 -90 829
-265 1120 -471 271 -191 394 -391 407 -657 7 -134 -7 -228 -51 -358 -68 -199
-208 -376 -353 -449 -98 -49 -156 -55 -263 -28 -113 28 -211 60 -235 76 -11 8
-31 14 -45 14 -41 0 -277 122 -371 191 -46 34 -110 89 -142 122 -61 62 -147
172 -147 189 0 5 19 -6 43 -25 62 -50 142 -92 227 -119 63 -19 96 -23 205 -23
119 1 137 3 216 31 211 75 370 241 425 444 28 102 23 245 -10 345 -69 202
-222 351 -432 419 -171 55 -405 28 -557 -65 -127 -77 -231 -201 -278 -329 -12
-33 -24 -60 -27 -60 -3 0 -2 82 1 183 7 201 27 345 82 585 6 26 -9 28 185 -15z
m-1285 -118 c200 -42 359 -194 414 -395 12 -41 21 -89 21 -106 0 -41 -73 -269
-116 -364 -41 -89 -60 -110 -138 -162 -151 -98 -350 -107 -518 -22 -75 38
-180 144 -222 223 -48 92 -67 168 -67 278 -1 219 115 410 306 504 116 57 203
69 320 44z m1809 -235 c169 -43 302 -150 375 -301 111 -232 66 -485 -120 -666
-103 -101 -240 -155 -393 -155 -315 0 -566 253 -566 569 0 156 54 286 165 399
146 149 342 205 539 154z m886 -85 c89 -34 153 -54 166 -51 18 5 38 -11 102
-79 87 -91 126 -159 142 -244 24 -129 4 -423 -40 -596 -28 -106 -116 -285
-180 -362 -77 -93 -170 -158 -265 -187 -11 -3 18 34 65 82 135 140 225 313
265 511 24 118 17 337 -15 436 -72 226 -196 373 -490 577 -29 20 20 3 250 -87z
m-1827 -237 c5 -168 17 -271 41 -368 6 -21 1 -28 -26 -44 -60 -34 -138 -57
-158 -46 -57 31 -62 88 -25 303 21 126 64 272 93 313 9 13 43 33 58 34 8 0 13
-60 17 -192z m-5137 -723 c1148 -411 1024 -363 1024 -395 0 -81 -51 -160 -103
-160 -36 0 -551 223 -588 254 -18 15 -43 26 -61 26 -16 0 -198 72 -405 161
l-375 161 -49 -12 c-91 -22 -174 -111 -225 -241 -15 -38 -28 -69 -28 -69 -38
7 -151 41 -156 47 -20 23 -40 101 -40 157 0 88 40 166 139 268 42 43 81 78 87
78 6 0 357 -124 780 -275z m5284 77 c0 -5 18 -39 41 -76 l41 -68 -33 -34 c-18
-19 -36 -34 -41 -34 -28 0 -55 135 -37 185 12 32 29 48 29 27z m-77 -218 c9
-18 23 -34 32 -38 13 -5 7 -17 -31 -61 l-48 -55 -26 25 c-69 66 -121 205 -89
234 8 7 41 27 74 45 l60 33 6 -76 c3 -42 13 -90 22 -107z m-5596 55 c65 -28
129 -55 142 -60 18 -7 21 -13 13 -21 -18 -18 -14 -45 13 -88 24 -38 28 -40 75
-40 28 0 61 -6 73 -14 22 -15 61 -24 110 -25 20 -1 27 -6 27 -21 0 -10 4 -29
9 -42 5 -13 12 -35 15 -50 8 -38 28 -54 75 -62 26 -4 41 -12 41 -20 0 -8 11
-23 24 -34 32 -24 197 -71 256 -72 230 -5 248 -3 285 18 29 18 40 20 56 11 11
-6 19 -16 16 -22 -2 -7 -37 -115 -76 -242 -40 -126 -74 -235 -76 -242 -13 -39
-37 -31 -730 234 -379 145 -696 271 -702 280 -31 42 -5 211 59 375 34 90 114
188 153 188 13 0 77 -23 142 -51z m5343 -23 c0 -67 92 -221 143 -239 15 -5
-30 -57 -50 -57 -7 0 -42 14 -78 31 -94 44 -119 81 -123 179 l-4 77 49 21 c63
28 63 28 63 -12z m560 -137 c0 -10 -205 -296 -277 -386 -49 -59 -163 -97 -163
-54 0 11 34 89 75 174 66 135 87 168 172 267 l96 112 48 -53 c27 -30 48 -57
49 -60z m-5591 10 c-27 -7 -45 4 -35 20 5 7 15 7 33 -2 l26 -12 -24 -6z m5638
-146 c-26 -32 -72 -78 -102 -103 -68 -55 -89 -86 -110 -169 -19 -74 -71 -429
-80 -546 -3 -44 -11 -108 -16 -141 l-11 -62 -58 -12 c-41 -9 -99 -10 -194 -5
-135 7 -170 17 -99 28 21 4 49 19 68 37 23 23 45 33 76 37 65 7 98 23 114 52
7 14 25 37 39 50 14 14 26 35 26 48 0 57 -128 231 -185 253 -34 13 -75 5 -107
-20 l-24 -18 8 86 c4 48 15 121 24 164 15 69 21 80 60 112 23 20 45 36 48 36
3 0 -8 -28 -24 -62 -17 -35 -30 -69 -30 -76 0 -8 13 -27 29 -43 25 -24 38 -29
78 -29 27 0 77 9 110 21 l62 20 105 157 c57 86 126 186 151 221 l47 63 20 -20
21 -20 -46 -59z m-6531 -50 l114 -27 0 -71 c0 -124 -28 -108 625 -355 308
-117 566 -215 573 -217 6 -3 12 -20 12 -38 0 -78 49 -149 146 -214 40 -27 87
-52 103 -56 17 -4 31 -9 31 -11 0 -3 -27 -47 -60 -100 -33 -52 -60 -100 -60
-106 0 -6 -8 -8 -17 -6 -26 7 -1631 578 -1672 594 l-33 14 5 178 c3 117 10
196 21 234 22 80 77 208 89 208 5 0 61 -12 123 -27z m6769 -14 c41 -22 77 -45
80 -49 3 -5 2 -65 -1 -134 l-7 -126 -41 -10 c-98 -24 -91 -16 -88 -109 3 -89
-2 -101 -44 -101 -11 0 -31 -11 -43 -24 -19 -20 -22 -33 -20 -74 l4 -50 -75
-4 c-67 -3 -81 -7 -120 -36 l-45 -33 -3 31 c-3 25 22 251 56 520 l7 55 80 53
c44 30 100 71 125 93 25 21 49 38 53 39 4 0 41 -18 82 -41z m-4695 -224 c47
-31 102 -66 123 -77 30 -18 37 -27 37 -53 0 -30 -1 -30 -39 -27 -33 3 -45 -1
-80 -33 -24 -22 -41 -46 -41 -59 0 -25 43 -61 84 -72 l25 -6 -33 -67 c-46 -91
-133 -203 -217 -279 l-69 -64 -53 7 c-70 10 -203 52 -252 81 -55 32 -103 81
-121 123 -8 19 -13 38 -12 42 2 3 43 -9 93 -28 104 -40 142 -38 197 8 28 23
41 44 58 101 83 278 142 447 158 451 41 11 62 4 142 -48z m359 -806 l191 -377
0 -74 c0 -41 -5 -90 -11 -109 -24 -72 -115 -137 -244 -174 -96 -28 -185 -5
-185 49 0 12 -43 188 -95 391 l-94 370 43 40 c53 50 145 166 176 222 13 24 24
42 25 40 1 -1 88 -171 194 -378z m4182 270 c103 -52 189 -186 189 -294 0 -51
-5 -70 -32 -115 -48 -79 -130 -119 -203 -99 -69 19 -167 173 -181 285 -5 46
-3 62 20 108 32 66 105 136 141 136 14 0 44 -9 66 -21z m-747 -270 c27 -5 64
-9 83 -9 29 0 34 -3 29 -16 -4 -9 -11 -47 -16 -83 -10 -74 -2 -123 28 -175
l20 -34 -53 13 c-121 28 -185 88 -193 180 -6 72 14 149 37 140 9 -4 38 -11 65
-16z m406 -31 c17 -65 78 -167 131 -220 35 -34 43 -48 32 -52 -8 -3 -74 -6
-146 -6 -146 0 -183 11 -221 63 -22 30 -34 106 -28 180 4 45 5 47 36 48 17 1
60 7 96 14 36 7 70 13 77 14 7 0 17 -18 23 -41z m790 -478 c175 -273 263 -421
256 -427 -2 -3 -44 -15 -93 -27 l-88 -23 -1 24 c-1 15 4 23 14 23 20 0 62 39
62 57 0 45 -126 147 -170 138 -23 -4 -36 11 -171 214 l-145 219 33 16 c18 8
49 33 70 54 l38 38 20 -30 c10 -17 89 -141 175 -276z m-420 160 c10 -18 8 -20
-30 -20 -27 0 -47 -7 -60 -20 -19 -19 -19 -22 -5 -58 9 -20 32 -53 51 -73 20
-20 46 -59 58 -86 l23 -49 -26 -12 c-14 -6 -36 -29 -48 -50 -20 -36 -21 -41
-7 -61 8 -11 22 -21 31 -21 8 0 24 -11 35 -25 24 -31 64 -33 116 -5 l37 20 18
-21 c20 -25 21 -42 5 -70 -11 -17 -10 -22 6 -35 25 -18 50 -18 66 1 10 12 7
28 -14 82 -20 51 -23 69 -13 75 21 14 26 9 74 -74 26 -45 60 -97 76 -115 16
-19 28 -35 26 -37 -12 -9 -384 -96 -413 -96 -33 0 -36 3 -95 110 -98 178 -176
296 -292 445 -60 77 -109 143 -109 148 0 4 39 7 88 7 112 0 214 15 266 39 57
27 122 27 136 1z m-3830 -75 c30 -3 62 -10 70 -15 12 -8 -36 -61 -230 -254
l-245 -244 -178 26 c-166 24 -178 27 -175 46 2 11 22 33 44 49 38 27 45 28 77
18 127 -42 352 17 465 123 54 49 75 101 78 186 2 41 3 76 3 78 1 2 9 1 19 -2
9 -2 42 -7 72 -11z m3329 -130 c23 -30 44 -61 46 -67 4 -10 -108 -39 -402
-106 -225 -51 -421 -96 -438 -100 -24 -6 -31 -13 -33 -39 -2 -23 2 -34 16 -42
23 -12 1294 -281 1330 -281 14 0 180 38 369 85 189 47 354 85 368 85 13 0 39
7 57 15 18 8 224 62 458 120 419 104 480 121 480 134 0 4 15 15 33 24 30 17
44 17 128 8 160 -19 718 -81 726 -81 4 -1 -541 -139 -1212 -307 l-1220 -306
-704 118 c-566 94 -713 122 -750 141 -57 29 -192 51 -225 36 -22 -10 -48 -6
-1178 184 -125 21 -225 40 -223 43 4 4 2283 388 2316 390 9 0 35 -24 58 -54z
m-2986 -271 c124 -184 204 -293 217 -297 20 -5 20 -11 20 -671 0 -366 -2 -666
-5 -666 -4 0 -62 97 -141 235 -15 28 -22 45 -14 40 32 -23 89 -36 109 -26 35
19 38 90 6 177 -28 77 -58 124 -70 112 -4 -4 7 -26 24 -50 37 -51 39 -81 6
-113 -29 -30 -75 -33 -99 -6 -16 17 -16 24 -5 58 7 21 19 45 26 54 21 25 16
49 -10 49 -42 0 -59 -88 -32 -165 8 -21 13 -41 11 -42 -3 -3 -660 1117 -680
1159 -8 16 22 51 209 238 121 121 222 216 226 212 3 -4 94 -138 202 -298z
m3641 231 c15 -23 15 -25 -1 -25 -19 0 -46 34 -36 44 11 11 21 6 37 -19z m626
0 c467 -51 844 -95 848 -100 7 -6 -4 -9 -158 -47 l-135 -33 -110 21 c-60 12
-155 33 -210 47 -90 23 -302 61 -380 69 -21 2 -34 12 -49 37 l-19 33 39 -6
c21 -3 100 -13 174 -21z m-1144 -162 c-2 -3 -82 -20 -178 -39 -95 -19 -220
-51 -278 -70 -104 -36 -104 -36 -179 -23 -42 7 -69 15 -61 18 8 2 161 39 340
81 323 76 325 77 343 57 10 -11 15 -22 13 -24z m3244 -399 c0 -297 -1 -316
-17 -309 -109 47 -195 -27 -129 -110 19 -24 31 -30 64 -30 26 0 48 7 61 19
l21 19 0 -826 c0 -454 -3 -828 -7 -830 -5 -2 -27 -2 -51 1 -34 3 -40 7 -32 17
14 17 3 80 -16 96 -8 6 -14 24 -14 40 0 32 -23 49 -67 49 -37 0 -56 -16 -78
-62 -16 -36 -13 -78 6 -78 5 0 9 -8 9 -18 0 -10 5 -23 12 -30 9 -9 2 -12 -32
-12 -24 0 -96 -5 -159 -12 l-116 -11 -89 -86 c-315 -305 -782 -870 -1086
-1312 l-73 -107 -86 -11 c-56 -7 -95 -18 -113 -31 -15 -11 -38 -20 -51 -20
-14 0 -41 -7 -61 -15 -31 -13 -38 -22 -52 -71 -21 -73 -12 -83 77 -86 77 -2
94 6 122 57 14 24 32 41 50 46 15 4 27 5 27 2 0 -3 -29 -51 -65 -109 -84 -132
-232 -392 -292 -509 l-47 -92 -165 -84 c-91 -46 -169 -85 -173 -87 -5 -2 -8
588 -8 1312 0 724 2 1316 5 1316 3 0 64 -12 137 -26 73 -14 145 -23 160 -20
14 3 357 123 760 267 403 144 846 301 983 350 262 93 312 115 358 157 l27 26
0 407 c0 267 4 409 10 411 6 2 8 21 4 49 l-6 46 -284 7 -283 8 -288 -82 c-493
-140 -1547 -440 -1565 -446 -17 -5 -18 11 -18 239 l0 244 43 12 c132 35 2564
640 2575 641 9 0 12 -70 12 -316z m-5619 146 c195 -33 567 -95 828 -139 423
-72 477 -83 511 -106 45 -31 134 -44 178 -26 24 10 62 6 233 -23 251 -43 1098
-186 1104 -186 3 0 5 -67 5 -150 0 -124 -2 -150 -14 -150 -8 0 -199 38 -423
85 -224 46 -878 181 -1453 300 -575 118 -1115 230 -1200 248 l-155 32 -3 88
c-3 80 -1 87 17 87 10 0 178 -27 372 -60z m546 -380 c213 -45 629 -130 923
-191 294 -60 544 -112 556 -115 20 -5 20 -11 21 -322 0 -174 3 -325 7 -334 6
-13 -7 -24 -65 -53 -62 -31 -74 -34 -86 -22 -12 11 -14 68 -13 305 1 309 -4
342 -47 356 -70 22 -716 127 -745 121 -60 -14 -58 4 -58 -469 0 -400 1 -434
18 -449 9 -8 83 -34 164 -58 l147 -42 -25 -49 c-24 -48 -27 -50 -57 -44 -18 3
-283 68 -589 144 l-558 137 0 583 c0 351 4 582 9 582 5 0 184 -36 398 -80z
m4743 -593 l0 -384 -22 -10 c-13 -6 -112 -42 -220 -81 l-198 -69 0 106 c0 58
-3 237 -7 398 l-6 291 39 11 c21 6 122 35 224 65 102 30 186 55 188 55 1 1 2
-171 2 -382z m-4098 244 c-12 -9 -28 -32 -36 -51 l-15 -35 -1 55 0 56 37 -4
c36 -4 36 -5 15 -21z m346 -41 c128 -22 237 -40 242 -40 6 0 10 -105 10 -276
0 -258 -1 -275 -17 -270 -90 27 -211 34 -231 14 -7 -7 -12 -19 -12 -27 0 -9
-21 -48 -48 -87 -26 -39 -55 -85 -64 -102 l-16 -31 -74 21 c-40 11 -98 28
-128 37 l-55 17 -3 339 c-2 330 -2 339 15 305 23 -46 58 -62 105 -50 48 14 72
42 70 85 -2 42 -16 73 -46 98 -20 17 -20 18 -1 13 11 -3 125 -23 253 -46z
m-254 -33 c12 -49 -1 -72 -40 -72 -26 0 -29 4 -32 37 -7 81 54 110 72 35z
m3210 -85 c71 -103 199 -276 238 -321 l38 -44 0 -147 0 -147 -62 -23 -62 -22
-30 34 c-17 19 -90 106 -162 194 -72 87 -184 219 -248 292 -65 74 -116 135
-114 136 3 3 348 103 358 105 3 0 23 -25 44 -57z m-693 -254 c79 -111 318
-414 407 -516 30 -35 51 -67 46 -71 -5 -5 -46 -21 -92 -36 -71 -25 -84 -27
-96 -14 -75 79 -585 663 -583 666 4 3 223 69 239 72 3 1 39 -45 79 -101z
m-685 -4 l104 -17 0 -453 c0 -250 -2 -454 -4 -454 -2 0 -41 7 -87 16 -45 8
-91 13 -101 11 -14 -4 -12 3 12 38 31 45 37 69 20 80 -5 3 -10 15 -10 26 0 10
-9 27 -20 36 -28 24 -25 31 18 39 53 10 70 21 87 57 8 18 24 47 36 64 18 28
21 49 21 152 1 111 -1 123 -26 176 -31 63 -85 109 -141 119 l-35 7 0 59 c0 36
4 60 11 60 5 0 57 -7 115 -16z m-82 -199 c40 -37 57 -88 63 -192 5 -82 3 -100
-17 -152 l-24 -58 -67 -22 -68 -22 -43 22 c-24 12 -67 32 -96 44 l-54 22 -3
50 c-4 56 -51 161 -91 204 l-24 25 137 38 c76 20 158 43 183 51 65 19 74 18
104 -10z m-580 -69 c50 -29 98 -80 126 -135 22 -44 42 -121 31 -121 -4 0 -33
5 -64 11 -52 11 -58 10 -94 -12 -65 -40 -170 -137 -239 -219 -65 -77 -67 -79
-93 -66 -14 8 -46 17 -71 21 -63 10 -133 42 -163 73 l-26 27 20 95 c31 152
102 279 166 298 96 27 133 35 198 41 151 14 164 13 209 -13z m-741 -6 c86 -22
111 -33 144 -63 l23 -20 -21 -34 c-40 -64 -59 -112 -79 -195 -29 -122 -28
-134 25 -185 l46 -43 -30 -44 c-39 -56 -233 -447 -296 -594 l-48 -114 -46 7
c-73 11 -171 44 -256 87 -44 22 -81 42 -83 43 -2 2 6 21 16 42 11 21 52 124
92 228 117 310 180 459 202 476 14 11 19 22 14 34 -4 11 26 83 86 206 103 214
87 200 211 169z m-1707 -84 c208 -51 566 -140 794 -196 228 -56 432 -106 452
-111 l38 -10 -16 -37 c-41 -96 -137 -355 -194 -522 -61 -177 -64 -189 -63
-280 0 -98 10 -162 69 -432 19 -86 34 -159 34 -163 0 -3 24 -28 53 -56 34 -33
90 -69 162 -105 114 -57 180 -73 249 -60 31 6 36 11 42 44 14 70 -38 563 -66
637 -14 36 -7 63 26 112 13 20 91 172 173 337 81 166 156 311 167 324 19 22
21 22 99 11 44 -7 81 -13 83 -15 2 -1 -32 -55 -76 -120 -96 -145 -182 -296
-292 -513 l-83 -164 7 -106 c9 -143 41 -351 77 -496 16 -66 29 -127 29 -135 2
-59 139 -131 362 -189 118 -31 179 -36 215 -17 30 15 31 17 36 103 6 103 0
703 -7 711 -3 2 10 23 29 45 19 22 35 45 35 50 0 5 29 41 64 81 78 87 188 228
281 360 l70 99 3 -897 2 -897 -25 -22 c-25 -22 -25 -25 -28 -190 -2 -156 -1
-170 17 -182 10 -8 23 -12 27 -9 5 3 9 -11 9 -31 0 -31 -3 -36 -17 -30 -10 4
-26 10 -35 12 -15 4 -17 12 -12 44 5 30 2 44 -11 59 -20 22 -45 26 -62 9 -7
-7 -18 -3 -36 15 -54 54 -137 22 -137 -52 0 -20 4 -43 9 -51 6 -10 0 -21 -20
-38 -19 -16 -29 -34 -29 -52 0 -15 -9 -36 -20 -46 -17 -16 -20 -16 -26 -2 -3
9 -18 20 -32 26 -15 6 -39 20 -53 32 -15 12 -46 23 -70 26 -40 5 -46 9 -60 43
-25 58 -59 75 -149 75 -41 -1 -98 -5 -126 -9 l-52 -9 -16 56 c-9 30 -16 80
-16 111 0 46 -4 57 -21 67 -31 16 -82 3 -113 -30 -26 -27 -28 -28 -74 -15 -26
7 -62 19 -81 27 -32 14 -34 17 -35 67 -1 45 -5 56 -28 73 -33 24 -111 27 -136
4 -17 -16 -89 -34 -107 -28 -90 31 -255 -1 -288 -56 -5 -8 -25 -13 -50 -13
-35 1 -39 3 -26 13 8 7 32 36 53 65 48 69 46 95 -12 139 -100 76 -203 11 -160
-100 17 -43 1 -44 -42 -2 -43 42 -88 51 -117 23 -19 -20 -11 -33 34 -57 l36
-18 -44 -6 c-53 -7 -186 34 -230 70 -37 31 -79 43 -121 34 -34 -8 -93 3 -103
18 -3 5 0 21 6 35 10 21 9 32 -1 54 -8 15 -15 35 -16 44 -3 37 -68 85 -138
101 -64 15 -162 20 -183 9 -10 -5 -33 -7 -50 -5 -31 5 -33 8 -33 44 0 36 2 38
36 45 20 4 46 2 59 -4 20 -10 25 -8 30 9 4 11 4 31 1 45 -4 14 -2 24 4 24 16
0 12 26 -10 51 l-19 24 -25 -30 c-15 -18 -25 -24 -26 -16 0 8 -6 22 -13 30 -8
9 -19 35 -26 59 -10 35 -17 44 -42 49 -20 4 -29 11 -29 24 0 10 -9 24 -20 31
-15 10 -20 24 -20 60 0 26 -4 50 -10 53 -6 4 -10 -16 -10 -53 0 -40 -5 -64
-15 -72 -22 -18 -45 -111 -46 -187 -1 -37 -5 -79 -9 -93 -4 -14 -8 500 -9
1143 -1 642 3 1167 7 1167 5 0 179 -42 388 -94z m3567 -282 l137 -140 -174
-62 c-96 -34 -179 -62 -185 -62 -8 0 -11 77 -11 252 l0 253 48 -50 c27 -28
110 -113 185 -191z m-948 40 c136 -40 335 -146 335 -178 0 -8 -7 -19 -16 -26
-8 -7 -53 -77 -98 -154 -46 -78 -162 -253 -258 -391 -95 -137 -185 -270 -200
-295 -14 -25 -38 -56 -52 -69 l-25 -24 -83 16 c-46 8 -130 21 -188 27 -144 15
-250 38 -257 56 -3 8 2 43 11 78 17 69 120 242 351 591 95 142 143 204 230
293 126 128 101 121 250 76z m-3148 -980 c-5 -5 -375 93 -385 101 -5 4 126
312 171 400 50 100 101 176 164 240 l48 50 3 -394 c1 -217 1 -396 -1 -397z
m6296 411 c9 -4 17 -13 17 -21 0 -19 27 -30 92 -38 51 -5 58 -4 72 16 l16 22
122 -17 c68 -10 206 -31 308 -48 l185 -30 33 -37 c131 -145 434 -786 662
-1397 190 -512 299 -910 331 -1213 10 -90 10 -139 0 -234 -40 -388 -193 -652
-487 -844 -536 -348 -1012 -579 -1458 -708 -571 -165 -1057 -167 -1625 -6
-176 50 -610 200 -715 248 -123 56 -211 109 -272 165 -87 79 -95 105 -80 249
l7 66 82 -37 c45 -20 118 -52 162 -69 64 -26 83 -38 93 -61 7 -16 37 -51 66
-79 52 -49 82 -63 189 -86 17 -4 27 -13 27 -25 0 -36 38 -56 124 -63 100 -8
439 -62 483 -76 26 -8 39 -7 70 9 20 10 48 19 61 19 12 0 34 11 47 24 21 21
28 23 72 15 26 -5 109 -15 183 -22 130 -12 134 -13 105 -27 -41 -21 -43 -45
-6 -64 25 -14 78 -16 330 -16 l301 0 93 30 c52 17 104 30 115 30 29 0 152 41
152 51 0 4 44 17 98 28 53 12 115 26 137 32 22 6 70 12 106 14 67 3 139 31
204 80 42 31 146 81 186 90 19 4 54 18 79 31 52 28 68 29 94 9 36 -27 92 -18
187 31 137 71 192 151 138 200 -16 14 -24 16 -39 7 -15 -10 -21 -8 -32 8 -7
11 -30 26 -51 33 -33 11 -36 14 -22 26 8 7 15 23 15 36 0 18 26 42 115 108
217 162 306 269 356 428 62 196 74 289 74 553 -1 203 -4 260 -23 370 -75 434
-233 877 -518 1450 -57 116 -104 217 -104 226 0 9 -9 24 -21 35 -12 10 -34 44
-49 75 -35 68 -52 83 -97 83 -35 0 -48 -10 -87 -65 -10 -15 -21 -15 -131 7
-209 40 -1057 141 -1274 152 l-145 7 108 112 c106 111 108 112 159 116 76 7
559 0 580 -8z m-303 -354 c637 -77 743 -91 856 -115 36 -8 68 -16 70 -19 3 -3
-13 -31 -35 -61 -38 -51 -45 -56 -79 -56 -21 0 -48 -8 -62 -17 -13 -9 -38 -18
-54 -18 -85 -5 -144 -44 -131 -87 8 -25 -17 -24 -32 2 -7 11 -30 28 -50 39
l-38 20 38 -6 c29 -4 37 -2 37 10 0 37 -154 64 -181 31 -11 -14 -10 -18 6 -30
24 -18 18 -18 -127 -16 -75 2 -77 3 -80 29 -2 19 -16 34 -50 55 -57 35 -108
45 -148 28 -42 -17 -52 -40 -35 -73 14 -27 13 -27 -13 -20 -43 12 -115 9 -120
-5 -2 -7 15 -21 40 -32 23 -11 34 -18 23 -16 -11 3 -60 12 -110 21 -83 15
-506 109 -548 121 -10 3 -17 9 -15 14 2 5 50 61 107 125 l104 118 186 -6 c110
-3 290 -18 441 -36z m-4323 -33 c60 -32 211 -78 255 -78 60 0 66 -21 97 -327
12 -109 25 -222 31 -252 5 -30 8 -56 5 -59 -17 -17 -240 86 -299 138 -25 22
-36 42 -41 73 -4 23 -22 105 -40 182 -39 162 -75 357 -66 353 3 -2 29 -15 58
-30z m666 -183 c29 -8 111 -21 182 -30 72 -9 169 -23 218 -32 l87 -17 0 -364
0 -364 -72 7 c-124 12 -170 24 -253 66 -124 62 -120 56 -154 209 -36 158 -56
270 -70 395 -6 50 -14 105 -17 124 -4 28 -3 33 11 28 9 -4 39 -13 68 -22z
m4467 -94 c0 -5 -7 -14 -15 -21 -8 -7 -15 -10 -15 -7 0 3 -3 12 -6 21 -4 12 0
16 15 16 12 0 21 -4 21 -9z m-7339 -107 c74 -26 318 -91 432 -114 l107 -23 0
-164 c0 -140 -2 -164 -14 -160 -17 7 -463 136 -601 174 -49 14 -91 26 -93 28
-2 2 20 54 48 116 29 63 56 124 61 137 10 26 6 26 60 6z m7249 -19 c-7 -9 -15
-13 -19 -10 -3 3 1 10 9 15 21 14 24 12 10 -5z m368 -82 c21 -17 52 -59 71
-97 30 -58 35 -79 39 -156 8 -163 -56 -295 -163 -336 -42 -16 -48 -16 -89 0
-52 20 -109 79 -139 144 -18 40 -22 66 -22 167 0 115 1 122 31 180 52 99 109
139 187 132 34 -3 58 -13 85 -34z m-1955 -149 c149 -36 329 -76 398 -89 69
-13 170 -35 225 -49 54 -14 216 -46 359 -71 143 -25 263 -47 267 -48 10 -3
-246 -400 -262 -405 -8 -3 -6 5 7 22 26 33 19 71 -21 100 -22 17 -42 21 -105
21 -43 0 -85 5 -92 11 -34 26 -165 86 -208 95 -38 8 -57 7 -96 -6 l-48 -17
-24 31 c-29 37 -85 55 -131 42 -50 -15 -143 -15 -188 -1 -58 18 -88 1 -79 -43
11 -50 27 -61 89 -59 30 0 64 5 75 11 28 16 51 14 51 -4 0 -9 7 -27 16 -40 15
-23 15 -25 -1 -25 -18 0 -457 108 -462 114 -2 2 16 8 40 14 48 13 83 43 74 66
-22 56 -182 69 -239 19 -15 -13 -16 -13 -11 5 13 50 -103 55 -145 7 -16 -19
-28 -24 -42 -20 -19 6 -17 11 27 73 123 175 229 312 241 312 6 0 135 -30 285
-66z m-4895 -368 c-18 -18 -34 -32 -36 -31 -1 1 2 14 7 28 9 22 22 31 54 36 4
0 -7 -14 -25 -33z m4520 -1 c-2 -2 -14 -1 -27 2 l-23 6 23 13 c20 11 25 10 27
-2 2 -9 2 -17 0 -19z m-5513 -75 c126 -32 611 -178 705 -212 30 -11 65 -30 77
-41 14 -12 36 -20 55 -20 18 1 90 -17 159 -39 l126 -40 -61 -118 c-53 -102
-63 -117 -76 -105 -25 21 -107 55 -163 66 -79 16 -118 26 -157 38 -19 6 -60
11 -91 11 -59 0 -117 19 -159 52 -14 11 -39 26 -56 33 -22 9 -33 22 -37 42 -9
43 -53 91 -96 104 -20 6 -41 20 -47 32 -32 70 -150 84 -266 30 -36 -17 -71
-41 -78 -53 -28 -52 23 -104 112 -116 49 -7 72 -23 66 -47 -2 -10 -39 0 -144
41 l-141 55 71 158 c39 88 73 159 76 159 3 0 59 -14 125 -30z m934 -36 c12 8
41 -10 41 -25 0 -5 -18 -9 -40 -9 -38 0 -40 1 -40 32 0 29 1 30 13 13 8 -10
19 -15 26 -11z m41 -125 c80 -50 85 -56 34 -39 -16 5 -48 14 -71 20 -36 9 -43
15 -43 35 0 23 1 23 33 9 17 -9 39 -20 47 -25z m7166 -138 c324 -172 467 -789
293 -1261 -51 -136 -147 -278 -227 -333 l-41 -29 -31 24 c-27 19 -43 23 -106
22 -60 0 -75 3 -79 16 -6 18 -45 40 -73 40 -12 1 -9 5 9 15 45 24 44 53 -4 97
-49 47 -79 64 -129 73 -38 7 -45 16 -58 74 -6 22 -4 40 3 53 15 23 -5 39 -37
31 -12 -3 -34 -4 -49 -4 -16 1 -42 -5 -58 -13 -27 -14 -28 -13 -39 18 -19 60
-40 190 -46 291 -25 414 166 828 421 912 23 7 71 12 115 10 62 -3 86 -9 136
-36z m-2626 -112 c358 -72 591 -114 800 -144 258 -37 325 -50 323 -62 -7 -33
-118 -213 -131 -213 -19 0 -408 69 -622 110 -85 16 -198 36 -251 44 -127 20
-382 80 -477 112 -76 25 -195 85 -207 104 -3 6 15 45 41 88 l46 78 117 -34
c64 -18 226 -56 361 -83z m-3832 -66 l213 -58 10 -39 c6 -22 9 -85 7 -141 -3
-93 -6 -106 -33 -151 -57 -91 -211 -192 -307 -202 -54 -5 -125 24 -191 78 -38
32 -73 81 -46 64 13 -7 54 -16 149 -30 47 -7 94 27 86 61 -4 17 3 32 29 58 36
36 45 69 23 84 -7 4 -29 13 -48 18 -34 10 -35 12 -46 82 -6 40 -17 79 -25 89
-19 23 -71 44 -109 44 -16 0 -30 3 -30 7 0 4 15 29 33 56 24 37 37 47 52 43
11 -3 116 -31 233 -63z m-896 -76 c26 -7 58 -23 72 -36 14 -13 48 -31 76 -40
47 -15 50 -18 36 -36 -13 -18 -19 -17 -221 36 -205 53 -207 54 -159 62 27 4
63 12 79 16 42 12 63 12 117 -2z m6289 -96 c74 -77 93 -137 94 -301 0 -119 -3
-143 -24 -198 -14 -37 -42 -83 -66 -110 -37 -41 -47 -47 -83 -47 -101 0 -184
157 -185 349 0 143 38 252 112 319 59 53 91 51 152 -12z m-7461 -66 c24 -12
152 -53 612 -196 87 -27 180 -58 208 -68 28 -11 146 -47 263 -81 117 -34 217
-63 223 -65 6 -2 17 -24 24 -50 19 -67 76 -151 151 -219 l64 -59 -112 6 c-212
12 -534 70 -873 158 -238 61 -349 98 -455 150 -131 64 -235 171 -235 242 0 12
-5 28 -11 34 -7 7 1 34 31 92 44 89 45 89 110 56z m3527 -22 c4 -12 -35 -38
-44 -30 -2 3 2 15 9 26 13 22 29 23 35 4z m-1840 -55 c-3 -8 -6 -5 -6 6 -1 11
2 17 5 13 3 -3 4 -12 1 -19z m1695 -42 c47 -13 91 -27 98 -31 19 -12 -830
-480 -1295 -714 -137 -70 -299 -146 -360 -170 l-109 -44 -201 6 c-393 11 -769
95 -1132 252 -347 152 -527 303 -559 471 l-7 39 62 -57 c106 -99 246 -164 514
-237 129 -36 357 -93 412 -103 16 -3 12 -8 -20 -23 -52 -26 -60 -68 -20 -105
23 -22 36 -25 100 -25 64 0 77 3 99 24 33 31 33 46 -1 78 l-28 26 29 -7 c89
-22 360 -57 478 -63 127 -6 136 -7 125 -24 -16 -26 8 -49 52 -49 20 0 112 24
206 54 93 30 197 57 231 61 57 6 94 19 84 28 -6 6 -255 -9 -295 -18 -16 -3 22
16 85 43 188 80 535 240 860 397 264 128 314 149 370 155 68 7 98 18 120 44 7
9 13 16 14 16 1 0 40 -11 88 -24z m1848 -244 c147 -58 550 -161 1149 -292 123
-27 226 -52 228 -54 3 -2 -2 -17 -10 -33 -8 -15 -33 -82 -56 -148 l-41 -120
-32 3 c-75 8 -441 64 -538 83 -178 35 -410 96 -617 162 -185 60 -387 139 -398
157 -5 7 88 237 121 302 l14 26 52 -28 c29 -16 87 -42 128 -58z m2764 -588 c9
-3 16 -15 16 -26 0 -11 5 -29 11 -41 17 -33 -4 -8 -30 36 -23 38 -23 41 3 31z
m-943 -47 c92 -69 138 -175 146 -332 6 -116 -6 -186 -46 -271 -35 -75 -73
-120 -122 -144 -159 -81 -319 109 -319 379 0 231 107 401 252 401 37 0 55 -7
89 -33z m1052 -96 c16 -6 41 -11 57 -11 l29 0 -27 -28 -27 -28 -23 21 c-13 11
-38 38 -55 60 -24 32 -26 35 -6 18 13 -12 37 -26 52 -32z m-3113 -78 c189 -69
483 -156 725 -216 126 -32 249 -51 490 -78 105 -11 191 -22 193 -23 1 -2 -3
-40 -9 -86 -13 -92 -7 -264 10 -321 6 -20 24 -56 40 -80 17 -24 29 -44 28 -45
-5 -5 -284 28 -397 46 -333 54 -687 142 -925 232 -44 16 -123 46 -175 65 -81
31 -297 127 -307 137 -5 5 36 235 63 349 22 91 29 107 43 102 9 -4 108 -41
221 -82z m3300 -63 c0 -5 -7 -10 -16 -10 -8 0 -12 5 -9 10 3 6 10 10 16 10 5
0 9 -4 9 -10z m-220 -454 c0 -10 -162 -97 -191 -102 -22 -4 5 14 76 49 124 62
115 58 115 53z"/>
<path d="M5579 10535 c-64 -21 -141 -92 -169 -157 -40 -94 -15 -211 62 -285
114 -110 310 -101 413 20 35 41 65 117 65 167 0 50 -30 126 -66 168 -71 84
-201 120 -305 87z m90 -97 c19 -34 6 -77 -29 -95 -31 -15 -55 4 -66 50 -5 26
-2 34 22 54 35 28 54 26 73 -9z"/>
<path d="M7263 10384 c-54 -20 -137 -94 -166 -148 -17 -32 -22 -58 -22 -121 0
-97 20 -141 94 -207 116 -104 295 -105 411 -2 75 68 95 111 95 209 0 63 -5 89
-22 120 -29 54 -86 110 -142 137 -59 29 -185 35 -248 12z m95 -129 c18 -38 15
-72 -8 -95 -26 -26 -45 -25 -64 2 -22 31 -20 68 6 95 28 30 52 29 66 -2z"/>
<path d="M867 9223 c-14 -4 -17 -10 -12 -26 4 -12 11 -42 16 -66 10 -47 22
-66 51 -82 34 -18 62 -19 87 -2 l25 16 -21 17 c-12 9 -36 41 -54 71 -31 51
-56 80 -68 78 -3 -1 -14 -3 -24 -6z"/>
<path d="M1214 9082 c3 -5 -3 -17 -14 -27 -11 -10 -20 -25 -20 -34 1 -36 59
-81 106 -81 36 0 84 33 84 59 0 24 -49 68 -82 75 -16 3 -40 8 -54 11 -14 3
-23 2 -20 -3z"/>
<path d="M1867 8872 c-15 -15 -27 -39 -27 -53 0 -58 87 -91 125 -49 16 18 17
24 5 61 -25 75 -58 88 -103 41z"/>
<path d="M4667 7260 c-58 -15 -77 -28 -77 -55 0 -35 31 -48 133 -55 75 -6 90
-10 103 -28 18 -26 70 -30 99 -8 14 10 26 11 43 5 30 -12 72 -12 72 0 0 5 -25
15 -55 21 -65 13 -65 35 -1 26 48 -8 76 0 76 20 0 24 -38 37 -71 23 -26 -10
-33 -9 -52 8 -12 11 -33 26 -46 33 -31 16 -175 22 -224 10z"/>
<path d="M5175 7090 c-7 -12 72 -70 97 -70 10 0 18 6 18 13 0 16 -107 70 -115
57z"/>
<path d="M3380 6610 c-8 -5 -3 -19 14 -44 14 -21 28 -47 31 -57 7 -19 8 -20
26 -3 23 20 24 52 4 81 -15 22 -56 35 -75 23z"/>
<path d="M9777 6423 c-41 -81 -25 -177 26 -158 7 3 21 34 31 70 17 60 17 66 2
90 -21 33 -42 32 -59 -2z"/>
<path d="M9702 5338 c-27 -27 -1 -138 32 -138 7 0 21 9 31 20 10 11 26 20 36
20 24 0 40 30 28 53 -6 9 -15 17 -22 17 -7 0 -18 9 -25 20 -14 22 -61 27 -80
8z"/>
<path d="M7507 3801 c-2 -10 -1 -25 4 -32 12 -21 33 4 24 30 -8 26 -21 27 -28
2z"/>
<path d="M7528 3553 c-7 -73 -1 -206 17 -337 8 -64 15 -162 15 -216 0 -90 11
-134 26 -97 3 9 14 12 29 9 59 -11 99 61 75 134 -20 59 -59 63 -88 9 -9 -16
-11 -6 -12 50 0 39 -7 131 -15 205 -8 74 -18 170 -21 213 -6 86 -20 101 -26
30z"/>
<path d="M4462 6600 c-42 -26 -39 -49 8 -72 77 -39 192 -12 176 40 -16 51
-123 69 -184 32z"/>
<path d="M4690 6565 c-18 -22 5 -72 43 -92 42 -21 159 -13 188 13 28 26 20 56
-21 76 -46 24 -191 25 -210 3z"/>
<path d="M5025 6521 c-50 -8 -65 -17 -65 -40 0 -43 88 -81 184 -81 67 0 77 4
95 38 19 35 -1 57 -67 76 -61 17 -81 18 -147 7z m15 -46 c0 -9 -6 -12 -15 -9
-8 4 -15 10 -15 15 0 5 7 9 15 9 8 0 15 -7 15 -15z"/>
<path d="M4463 6420 c-37 -22 -37 -23 -23 -51 25 -45 132 -66 178 -33 30 21
28 58 -4 83 -35 28 -107 28 -151 1z m69 -12 c-5 -7 -11 -21 -13 -32 -4 -17 -5
-17 -23 3 -18 20 -18 21 5 30 34 14 43 13 31 -1z"/>
<path d="M4726 6391 c-90 -13 -93 -61 -6 -110 43 -24 120 -32 168 -17 31 10
44 39 32 70 -19 52 -89 73 -194 57z m8 -46 c-4 -8 -10 -12 -15 -9 -14 8 -10
24 6 24 9 0 12 -6 9 -15z"/>
<path d="M4982 6360 c-12 -5 -27 -21 -34 -35 -23 -50 46 -103 137 -104 50 -1
109 15 125 33 18 23 -21 91 -61 105 -38 13 -135 13 -167 1z"/>
<path d="M4473 6268 c-59 -9 -63 -11 -63 -37 0 -52 65 -92 147 -92 69 0 108
24 108 66 0 58 -74 83 -192 63z"/>
<path d="M4752 6198 c-35 -35 3 -87 82 -114 73 -25 166 0 166 44 0 23 -35 57
-73 71 -39 15 -160 14 -175 -1z"/>
<path d="M4447 5914 c1 -116 5 -184 13 -199 14 -25 107 -54 265 -80 110 -18
166 -19 189 -2 19 14 23 69 18 254 -2 101 -2 103 -29 117 -43 21 -355 86 -416
86 l-42 0 2 -176z m226 96 c76 -16 151 -30 167 -30 l30 0 0 -158 0 -158 -82 7
c-73 7 -210 30 -260 45 -16 5 -18 22 -18 169 0 127 3 163 13 160 6 -2 74 -18
150 -35z"/>
<path d="M4634 5956 c-72 -32 -86 -106 -30 -162 59 -59 142 -39 178 43 25 56
18 87 -25 113 -37 23 -79 25 -123 6z"/>
<path d="M5741 6231 c-32 -21 -1 -38 97 -55 94 -17 142 -15 142 3 0 17 -28 29
-104 45 -89 18 -115 19 -135 7z"/>
<path d="M5733 6074 c-7 -19 13 -34 47 -34 14 0 60 -5 103 -12 58 -9 80 -9 89
0 21 21 -10 39 -88 51 -105 15 -143 14 -151 -5z"/>
<path d="M5745 5896 c-29 -22 -8 -37 72 -52 88 -17 138 -17 152 0 17 21 -8 35
-81 46 -34 6 -77 12 -93 15 -19 3 -39 -1 -50 -9z"/>
<path d="M4030 4290 c0 -34 26 -52 41 -29 15 24 6 54 -18 57 -20 3 -23 -1 -23
-28z"/>
<path d="M4847 4243 c-4 -3 -7 -15 -7 -25 0 -20 25 -34 84 -43 37 -6 38 -8 32
-38 -3 -17 -13 -38 -21 -47 -29 -32 -11 -70 34 -70 23 0 23 -1 8 -18 -10 -10
-17 -25 -17 -34 0 -22 33 -48 61 -48 13 -1 35 -7 49 -15 37 -21 93 -18 125 7
24 18 27 26 22 61 -3 22 -14 52 -25 66 -25 34 -84 54 -126 43 -31 -9 -31 -9
-31 28 0 20 -8 48 -17 62 -32 49 -146 96 -171 71z"/>
<path d="M4526 4035 c-13 -36 -28 -320 -19 -380 7 -50 11 -60 28 -60 29 0 37
87 25 273 -10 153 -20 203 -34 167z"/>
<path d="M4022 3904 c-27 -19 -28 -36 -2 -59 16 -14 26 -16 52 -9 39 11 63 59
38 74 -23 15 -63 12 -88 -6z"/>
<path d="M5142 3778 c-17 -17 -15 -39 8 -66 25 -30 60 -26 80 10 11 21 12 32
4 45 -13 22 -74 29 -92 11z"/>
<path d="M4080 3595 c51 -52 80 -68 80 -45 0 6 -3 10 -8 10 -4 0 -30 20 -59
45 -71 62 -79 56 -13 -10z"/>
<path d="M5171 3636 c-17 -20 10 -146 30 -146 4 0 12 14 19 30 23 55 -19 153
-49 116z"/>
<path d="M4232 3529 c2 -6 8 -10 13 -10 5 0 11 4 13 10 2 6 -4 11 -13 11 -9 0
-15 -5 -13 -11z"/>
<path d="M4940 3435 c-14 -36 -9 -160 7 -176 29 -29 40 141 13 191 -7 12 -11
8 -20 -15z"/>
<path d="M4718 3358 c-16 -5 -28 -13 -28 -17 0 -5 -18 -4 -39 2 -82 22 -168
-32 -143 -89 15 -32 54 -47 120 -46 l52 1 0 -37 c0 -53 23 -82 64 -82 52 0 66
30 66 143 0 77 -3 97 -17 109 -26 22 -45 26 -75 16z"/>
<path d="M4830 3231 c0 -26 10 -51 21 -51 5 0 9 16 9 35 0 24 -5 35 -15 35 -8
0 -15 -9 -15 -19z"/>
<path d="M4907 3084 c-4 -4 -7 -11 -7 -16 0 -13 50 -6 53 7 2 12 -36 19 -46 9z"/>
<path d="M10316 4649 c-36 -10 -66 -37 -66 -60 0 -10 12 -27 26 -38 47 -37
160 -21 178 25 6 16 -17 64 -32 64 -4 0 -23 4 -42 9 -19 4 -48 4 -64 0z"/>
<path d="M8649 452 c-24 -12 -35 -25 -37 -44 -5 -39 38 -58 128 -58 62 0 74 3
95 25 31 30 31 36 1 64 -33 31 -137 38 -187 13z"/>
<path d="M9397 4294 c-22 -12 -28 -21 -25 -42 6 -55 119 -80 163 -35 49 49
-69 116 -138 77z"/>
<path d="M3244 3881 c-131 -13 -126 -72 15 -158 82 -51 115 -43 120 27 1 19
11 44 22 56 17 18 19 26 10 43 -22 41 -41 44 -167 32z"/>
<path d="M3436 3681 c-11 -17 6 -41 29 -41 26 0 50 24 40 40 -8 12 -62 13 -69
1z"/>
<path d="M8730 3475 c0 -13 8 -16 38 -13 20 2 37 8 37 13 0 6 -17 11 -37 13
-30 3 -38 0 -38 -13z"/>
<path d="M10934 2831 c-100 -26 -195 -110 -256 -228 -66 -125 -81 -189 -84
-365 -3 -142 -5 -159 -23 -177 -29 -29 -35 -64 -20 -108 24 -74 43 -98 82
-103 31 -4 41 -13 75 -66 37 -57 100 -117 149 -143 12 -6 24 -24 28 -40 3 -16
15 -37 25 -46 10 -9 16 -22 14 -29 -14 -38 77 -52 136 -21 26 13 31 21 26 40
-3 13 -2 27 4 30 5 3 10 14 10 23 1 10 20 26 50 40 163 77 280 318 280 582 0
267 -118 510 -286 587 -60 27 -155 38 -210 24z"/>
<path d="M4642 2502 c-23 -4 -91 -85 -92 -110 0 -30 154 20 167 55 13 33 -28
63 -75 55z"/>
<path d="M4485 2267 c-13 -10 -15 -16 -6 -21 14 -9 71 12 71 25 0 14 -44 11
-65 -4z"/>
<path d="M2874 2252 c-35 -5 -58 -36 -45 -61 13 -24 28 -28 138 -35 65 -4 85
-2 97 10 23 22 10 40 -47 63 -54 21 -106 29 -143 23z"/>
<path d="M10560 155 l0 -155 720 0 720 0 0 155 0 155 -720 0 -720 0 0 -155z
m160 39 c0 -11 -6 -14 -20 -9 -21 7 -28 -10 -7 -18 9 -4 8 -8 -3 -17 -13 -10
-12 -11 3 -6 10 3 23 6 28 6 5 0 9 7 9 16 0 26 54 14 58 -14 2 -12 7 -20 12
-17 4 3 6 14 3 25 -5 19 0 20 62 20 64 0 66 -1 60 -22 -16 -53 -46 -81 -60
-58 -3 5 1 10 9 10 9 0 16 3 16 8 -1 10 -26 42 -34 42 -4 0 -6 -8 -4 -17 3
-16 -8 -18 -102 -20 l-105 -2 2 42 c1 23 2 43 2 45 1 1 17 2 36 2 25 0 35 -4
35 -16z m980 6 c0 -5 -4 -10 -10 -10 -5 0 -10 5 -10 10 0 6 5 10 10 10 6 0 10
-4 10 -10z m80 -36 c0 -44 -1 -45 -27 -42 -35 4 -46 46 -14 55 12 3 17 11 14
19 -3 8 1 14 11 14 12 0 16 -10 16 -46z m-200 21 c0 -17 -16 -20 -25 -5 -9 15
-25 2 -25 -21 0 -10 7 -19 15 -19 8 0 15 5 15 10 0 6 6 10 14 10 9 0 12 -7 9
-19 -7 -26 -60 -26 -73 0 -16 29 4 59 40 59 20 0 30 -5 30 -15z m40 -25 c0
-11 5 -20 10 -20 6 0 10 9 10 20 0 11 5 20 10 20 6 0 10 -11 10 -25 0 -14 5
-25 10 -25 6 0 10 12 10 26 0 14 4 23 10 19 6 -3 10 -17 10 -31 0 -23 -3 -24
-47 -22 -44 3 -48 5 -50 31 -1 15 2 27 8 27 5 0 9 -9 9 -20z m225 9 c4 -6 4
-13 0 -17 -3 -3 -10 -1 -14 7 -6 9 -10 7 -14 -8 -3 -13 1 -21 12 -24 11 -3 10
-5 -5 -6 -12 0 -25 6 -28 15 -12 30 33 60 49 33z m40 1 c-3 -6 1 -13 9 -16 26
-10 19 -34 -9 -34 -14 0 -25 4 -25 10 0 5 8 7 18 3 16 -6 16 -5 -1 14 -16 19
-14 33 5 33 5 0 6 -5 3 -10z"/>
<path d="M11740 150 c0 -19 3 -21 12 -12 9 9 9 15 0 24 -9 9 -12 7 -12 -12z"/>
</g>
</svg>
